<svg width="886" height="563" viewBox="0 0 886 563" fill="none" xmlns="http://www.w3.org/2000/svg">
<g opacity="0.5" filter="url(#filter0_d_22_69)">
<path d="M507.225 334.699L617.138 328.996L608.334 407.121L498.421 412.825L507.225 334.699Z" fill="#FAF4F4" fill-opacity="0.7"/>
<path d="M725.947 323.349L835.861 317.646L827.057 395.771L717.144 401.475L725.947 323.349Z" fill="#FAF4F4" fill-opacity="0.7"/>
<path d="M616.586 329.024L726.499 323.321L717.696 401.446L607.782 407.15L616.586 329.024Z" fill="#8682BE" fill-opacity="0.7"/>
<path d="M608.017 407.138L717.93 401.434L709.127 479.56L599.213 485.263L608.017 407.138Z" fill="#FAF4F4" fill-opacity="0.7"/>
<path d="M826.74 395.788L936.653 390.084L927.849 468.21L817.936 473.913L826.74 395.788Z" fill="#FAF4F4" fill-opacity="0.7"/>
<path d="M717.378 401.463L827.292 395.759L818.488 473.885L708.575 479.588L717.378 401.463Z" fill="#8682BE" fill-opacity="0.7"/>
<path d="M497.869 412.853L607.782 407.15L598.979 485.275L489.065 490.979L497.869 412.853Z" fill="#8682BE" fill-opacity="0.7"/>
<path d="M836.095 317.634L946.009 311.93L937.205 390.056L827.292 395.759L836.095 317.634Z" fill="#8682BE" fill-opacity="0.7"/>
<path d="M488.513 491.007L598.427 485.304L589.623 563.429L479.71 569.133L488.513 491.007Z" fill="#FAF4F4" fill-opacity="0.7"/>
<path d="M707.236 479.658L817.149 473.954L808.345 552.08L698.432 557.783L707.236 479.658Z" fill="#FAF4F4" fill-opacity="0.7"/>
<path d="M597.875 485.332L707.788 479.629L698.984 557.755L589.071 563.458L597.875 485.332Z" fill="#8682BE" fill-opacity="0.7"/>
<path d="M589.306 563.446L699.219 557.742L690.415 635.868L580.502 641.571L589.306 563.446Z" fill="#FAF4F4" fill-opacity="0.7"/>
<path d="M808.029 552.096L917.942 546.393L909.138 624.518L799.225 630.222L808.029 552.096Z" fill="#FAF4F4" fill-opacity="0.7"/>
<path d="M698.667 557.771L808.58 552.068L799.776 630.193L689.863 635.897L698.667 557.771Z" fill="#8682BE" fill-opacity="0.7"/>
<path d="M817.384 473.942L927.297 468.239L918.493 546.364L808.58 552.067L817.384 473.942Z" fill="#8682BE" fill-opacity="0.7"/>
<path d="M68.7582 357.451L178.906 351.736L170.103 429.861L59.6589 435.592L68.7582 357.451Z" fill="#FAF4F4" fill-opacity="0.7"/>
<path d="M287.716 346.09L397.629 340.386L388.825 418.512L278.912 424.215L287.716 346.09Z" fill="#FAF4F4" fill-opacity="0.7"/>
<path d="M178.354 351.764L288.267 346.061L279.464 424.186L169.55 429.89L178.354 351.764Z" fill="#8682BE" fill-opacity="0.7"/>
<path d="M169.785 429.878L279.698 424.174L270.895 502.3L160.981 508.003L169.785 429.878Z" fill="#FAF4F4" fill-opacity="0.7"/>
<path d="M388.508 418.528L498.421 412.825L489.617 490.95L379.704 496.653L388.508 418.528Z" fill="#FAF4F4" fill-opacity="0.7"/>
<path d="M279.147 424.203L389.06 418.499L380.256 496.625L270.343 502.328L279.147 424.203Z" fill="#8682BE" fill-opacity="0.7"/>
<path d="M59.6372 435.593L169.55 429.89L160.747 508.015L50.2975 513.747L59.6372 435.593Z" fill="#8682BE" fill-opacity="0.7"/>
<path d="M397.863 340.374L507.777 334.67L498.973 412.796L389.06 418.499L397.863 340.374Z" fill="#8682BE" fill-opacity="0.7"/>
<path d="M50.2816 513.747L160.195 508.044L151.391 586.17L40.9304 591.901L50.2816 513.747Z" fill="#FAF4F4" fill-opacity="0.7"/>
<path d="M269.004 502.398L378.917 496.694L370.114 574.82L260.2 580.523L269.004 502.398Z" fill="#FAF4F4" fill-opacity="0.7"/>
<path d="M159.643 508.073L269.556 502.369L260.752 580.495L150.839 586.198L159.643 508.073Z" fill="#8682BE" fill-opacity="0.7"/>
<path d="M379.152 496.682L489.065 490.979L480.262 569.104L370.349 574.808L379.152 496.682Z" fill="#8682BE" fill-opacity="0.7"/>
<path d="M543.894 22.7688L653.807 17.0653L645.004 95.1908L535.091 100.894L543.894 22.7688Z" fill="#FAF4F4" fill-opacity="0.7"/>
<path d="M762.617 11.4192L872.53 5.71568L863.726 83.8412L753.813 89.5447L762.617 11.4192Z" fill="#FAF4F4" fill-opacity="0.7"/>
<path d="M653.255 17.0941L763.169 11.3906L754.365 89.5161L644.452 95.2196L653.255 17.0941Z" fill="#8682BE" fill-opacity="0.7"/>
<path d="M643.866 94.6027L753.779 88.8992L744.976 167.025L635.062 172.728L643.866 94.6027Z" fill="#FAF4F4" fill-opacity="0.7"/>
<path d="M863.409 83.8576L973.322 78.1542L964.519 156.28L854.605 161.983L863.409 83.8576Z" fill="#FAF4F4" fill-opacity="0.7"/>
<path d="M753.228 88.9278L863.141 83.2243L854.337 161.35L744.424 167.053L753.228 88.9278Z" fill="#8682BE" fill-opacity="0.7"/>
<path d="M534.505 100.277L644.418 94.574L635.615 172.7L525.701 178.403L534.505 100.277Z" fill="#8682BE" fill-opacity="0.7"/>
<path d="M872.765 5.70349L982.678 9.9155e-06L973.874 78.1255L863.961 83.829L872.765 5.70349Z" fill="#8682BE" fill-opacity="0.7"/>
<path d="M525.15 178.432L635.063 172.728L626.259 250.854L516.346 256.557L525.15 178.432Z" fill="#FAF4F4" fill-opacity="0.7"/>
<path d="M743.872 167.082L853.785 161.379L844.981 239.504L735.068 245.207L743.872 167.082Z" fill="#FAF4F4" fill-opacity="0.7"/>
<path d="M635.298 172.716L745.211 167.012L736.407 245.138L626.494 250.841L635.298 172.716Z" fill="#8682BE" fill-opacity="0.7"/>
<path d="M625.942 250.87L735.855 245.167L727.052 323.292L617.138 328.996L625.942 250.87Z" fill="#FAF4F4" fill-opacity="0.7"/>
<path d="M844.698 240.166L954.611 234.463L945.808 312.588L835.894 318.291L844.698 240.166Z" fill="#FAF4F4" fill-opacity="0.7"/>
<path d="M735.303 245.195L845.216 239.492L836.413 317.617L726.499 323.321L735.303 245.195Z" fill="#8682BE" fill-opacity="0.7"/>
<path d="M515.794 256.586L625.707 250.882L616.903 329.008L506.99 334.711L515.794 256.586Z" fill="#8682BE" fill-opacity="0.7"/>
<path d="M854.054 162.012L963.967 156.308L955.163 234.434L845.25 240.137L854.054 162.012Z" fill="#8682BE" fill-opacity="0.7"/>
<path d="M105.742 45.5049L215.304 39.8197L206.541 117.943L96.3161 123.663L105.742 45.5049Z" fill="#FAF4F4" fill-opacity="0.7"/>
<path d="M324.384 34.1594L434.298 28.4559L425.494 106.581L315.581 112.285L324.384 34.1594Z" fill="#FAF4F4" fill-opacity="0.7"/>
<path d="M215.023 39.8343L324.937 34.1308L316.133 112.256L206.22 117.96L215.023 39.8343Z" fill="#8682BE" fill-opacity="0.7"/>
<path d="M206.421 117.302L316.334 111.599L307.531 189.724L197.617 195.428L206.421 117.302Z" fill="#FAF4F4" fill-opacity="0.7"/>
<path d="M425.144 105.952L535.057 100.249L526.253 178.374L416.34 184.078L425.144 105.952Z" fill="#FAF4F4" fill-opacity="0.7"/>
<path d="M315.782 111.627L425.695 105.924L416.892 184.049L306.978 189.753L315.782 111.627Z" fill="#8682BE" fill-opacity="0.7"/>
<path d="M96.273 123.018L206.186 117.314L197.382 195.44L86.9499 201.17L96.273 123.018Z" fill="#8682BE" fill-opacity="0.7"/>
<path d="M434.533 28.4437L544.446 22.7402L535.642 100.866L425.729 106.569L434.533 28.4437Z" fill="#8682BE" fill-opacity="0.7"/>
<path d="M86.9173 201.172L196.83 195.468L188.027 273.594L77.5856 279.325L86.9173 201.172Z" fill="#FAF4F4" fill-opacity="0.7"/>
<path d="M305.64 189.822L415.553 184.119L406.749 262.244L296.836 267.948L305.64 189.822Z" fill="#FAF4F4" fill-opacity="0.7"/>
<path d="M196.279 195.497L306.192 189.793L297.388 267.919L187.475 273.622L196.279 195.497Z" fill="#8682BE" fill-opacity="0.7"/>
<path d="M187.71 273.61L297.623 267.907L288.819 346.032L178.906 351.736L187.71 273.61Z" fill="#FAF4F4" fill-opacity="0.7"/>
<path d="M406.432 262.261L516.346 256.557L507.542 334.683L397.629 340.386L406.432 262.261Z" fill="#FAF4F4" fill-opacity="0.7"/>
<path d="M297.071 267.935L406.984 262.232L398.18 340.357L288.267 346.061L297.071 267.935Z" fill="#8682BE" fill-opacity="0.7"/>
<path d="M77.5615 279.326L187.475 273.622L178.671 351.748L68.7577 357.451L77.5615 279.326Z" fill="#8682BE" fill-opacity="0.7"/>
<path d="M415.788 184.106L525.701 178.403L516.897 256.528L406.984 262.232L415.788 184.106Z" fill="#8682BE" fill-opacity="0.7"/>
</g>
<defs>
<filter id="filter0_d_22_69" x="28.1221" y="0" width="958.556" height="678.027" filterUnits="userSpaceOnUse" color-interpolation-filters="sRGB">
<feFlood flood-opacity="0" result="BackgroundImageFix"/>
<feColorMatrix in="SourceAlpha" type="matrix" values="0 0 0 0 0 0 0 0 0 0 0 0 0 0 0 0 0 0 127 0" result="hardAlpha"/>
<feOffset dy="4"/>
<feGaussianBlur stdDeviation="2"/>
<feComposite in2="hardAlpha" operator="out"/>
<feColorMatrix type="matrix" values="0 0 0 0 0 0 0 0 0 0 0 0 0 0 0 0 0 0 0.25 0"/>
<feBlend mode="normal" in2="BackgroundImageFix" result="effect1_dropShadow_22_69"/>
<feBlend mode="normal" in="SourceGraphic" in2="effect1_dropShadow_22_69" result="shape"/>
</filter>
</defs>
</svg>
