<svg width="329" height="438" viewBox="0 0 329 438" fill="none" xmlns="http://www.w3.org/2000/svg">
<path fill-rule="evenodd" clip-rule="evenodd" d="M183.899 159.565C218.498 171.194 255.973 152.574 267.602 117.975C279.231 83.3757 260.611 45.9004 226.012 34.2714C218.559 31.7664 210.972 30.665 203.54 30.8246C213.882 33.9045 230.2 45.0728 212.73 65.107C190.893 90.1498 180.629 103.329 198.975 110.37C217.322 117.412 182.535 154.075 175.698 156.189C178.319 157.479 181.055 158.609 183.899 159.565Z" fill="#221E32"/>
<path d="M203.54 30.8246C176.467 31.4058 151.432 48.716 142.308 75.8621C131.635 107.617 146.443 141.794 175.698 156.189C182.535 154.075 217.322 117.412 198.975 110.37C180.629 103.329 190.893 90.1498 212.73 65.107C230.2 45.0728 213.882 33.9045 203.54 30.8246Z" fill="#8B85BC"/>
<path d="M222.381 162.986C220.024 161.209 202.145 156.263 186.771 151.524L102.117 403.389C162.886 422.376 201.9 424.146 209.432 422.246L213.734 404.75L206.654 397.634C224.074 394.65 218.711 369.59 213.852 357.434C202.541 339.426 175.934 301.179 206.695 298.89C232.766 296.95 208.666 286.762 197.486 279.322L194.649 278.368C187.842 276.08 198.724 225.542 206.673 200.327C222.177 206.8 236.469 205.606 241.677 204.199L243.953 197.429C245.048 194.171 243.156 190.705 239.992 189.362C223.49 182.354 221.229 169.235 222.381 162.986Z" fill="#221E32"/>
<path d="M155.074 139.977C152.891 139.346 150.869 140.48 149.429 142.238C145.108 147.514 135.95 153.178 121.501 149.536C118.168 148.695 114.567 150.314 113.472 153.573L112.219 157.299C111.58 159.201 111.918 161.312 113.325 162.742C117.281 166.758 124.77 172.577 135.167 176.433C138.474 177.659 140.416 181.249 139.148 184.54C129.247 210.253 110.161 249.971 103.88 247.859L101.796 247.159C101.296 246.991 100.785 246.892 100.26 246.853C86.6832 245.846 62.6545 239.979 81.8851 256.94C104.829 277.176 61.4361 291.518 41.3162 299.089C40.978 299.217 40.6718 299.365 40.3638 299.554C31.011 305.299 16.527 317.604 18.6651 328.896C19.273 332.107 17.8177 336.289 14.5817 336.743C13.1877 336.938 11.9965 337.847 11.4387 339.139L6.62738 350.289C5.74792 352.327 6.08135 354.68 7.75858 356.134C11.9353 359.755 20.1945 365.506 32.5609 372.425C43.8568 372.818 64.68 367.409 57.6062 342.626C48.7639 311.648 59.8036 303.106 77.555 303.237C95.3064 303.369 135.197 283.519 124.328 272.573C113.459 261.626 163.588 227.13 142.284 226.096C120.979 225.062 166.822 134.862 160.655 187.927C155.722 230.379 176.154 180.875 183.924 149.946C174.322 146.359 161.428 141.814 155.074 139.977Z" fill="#8B85BC"/>
<path d="M102.117 403.389L186.771 151.524C183.821 150.448 186.914 151.063 183.924 149.946C176.154 180.875 155.722 230.379 160.655 187.927C166.822 134.862 120.979 225.062 142.284 226.096C163.588 227.13 113.459 261.626 124.328 272.573C135.197 283.519 95.3064 303.369 77.555 303.237C59.8036 303.106 48.7639 311.648 57.6062 342.626C64.68 367.409 43.8568 372.818 32.5609 372.425C48.7173 381.466 71.8842 392.501 102.117 403.389Z" fill="#221E32"/>
</svg>
